<svg width="24" height="24" viewBox="0 0 24 24" fill="none" xmlns="http://www.w3.org/2000/svg">
<path d="M10.1212 20.1209C6.42366 19.2684 3.66699 15.9559 3.66699 12.0001C3.66699 7.39758 7.39783 3.66675 12.0003 3.66675C16.6028 3.66675 20.3337 7.39758 20.3337 12.0001C20.3337 15.9559 17.577 19.2684 13.8795 20.1209L12.0003 22.0001L10.1212 20.1209ZM7.84366 17.2142C8.62016 17.8352 9.52643 18.2736 10.4953 18.4967L10.962 18.6042L12.0003 19.6434L13.0395 18.6042L13.5062 18.4959C14.5383 18.258 15.4985 17.7762 16.3062 17.0909C15.7635 16.5339 15.1146 16.0913 14.398 15.7895C13.6813 15.4876 12.9113 15.3325 12.1337 15.3334C10.437 15.3334 8.90866 16.0584 7.84366 17.2142ZM6.68033 16.0167C7.3807 15.2735 8.22588 14.6815 9.16377 14.2773C10.1017 13.8732 11.1124 13.6654 12.1337 13.6667C13.1184 13.6655 14.0936 13.8587 15.0034 14.2354C15.9133 14.6121 16.7397 15.1648 17.4353 15.8617C18.1487 14.8577 18.57 13.6756 18.6525 12.4467C18.7349 11.2177 18.4753 9.98999 17.9024 8.89963C17.3295 7.80927 16.4658 6.89893 15.407 6.26962C14.3482 5.6403 13.1357 5.31661 11.9042 5.33446C10.6726 5.3523 9.47004 5.71099 8.42993 6.37071C7.38981 7.03044 6.55279 7.96542 6.01174 9.07192C5.47068 10.1784 5.24674 11.4132 5.36476 12.6392C5.48277 13.8652 5.93814 15.0346 6.68033 16.0176V16.0167ZM12.0003 12.8334C11.1163 12.8334 10.2684 12.4822 9.6433 11.8571C9.01818 11.232 8.66699 10.3841 8.66699 9.50008C8.66699 8.61603 9.01818 7.76818 9.6433 7.14306C10.2684 6.51794 11.1163 6.16675 12.0003 6.16675C12.8844 6.16675 13.7322 6.51794 14.3573 7.14306C14.9825 7.76818 15.3337 8.61603 15.3337 9.50008C15.3337 10.3841 14.9825 11.232 14.3573 11.8571C13.7322 12.4822 12.8844 12.8334 12.0003 12.8334ZM12.0003 11.1667C12.4424 11.1667 12.8663 10.9912 13.1788 10.6786C13.4914 10.366 13.667 9.94211 13.667 9.50008C13.667 9.05805 13.4914 8.63413 13.1788 8.32157C12.8663 8.00901 12.4424 7.83342 12.0003 7.83342C11.5583 7.83342 11.1344 8.00901 10.8218 8.32157C10.5093 8.63413 10.3337 9.05805 10.3337 9.50008C10.3337 9.94211 10.5093 10.366 10.8218 10.6786C11.1344 10.9912 11.5583 11.1667 12.0003 11.1667Z" fill="#10BD99"/>
</svg>
