<svg width="24" height="25" viewBox="0 0 24 25" fill="none" xmlns="http://www.w3.org/2000/svg">
<path d="M5.33317 7.61916V18.3058L9.554 16.4975L14.554 18.9975L18.6665 17.2333V6.54749L19.7523 6.08249C19.8157 6.05531 19.8849 6.0443 19.9536 6.05044C20.0223 6.05659 20.0884 6.0797 20.146 6.1177C20.2036 6.15569 20.2508 6.20739 20.2835 6.26816C20.3162 6.32892 20.3332 6.39684 20.3332 6.46582V18.3333L14.4998 20.8333L9.49984 18.3333L4.24734 20.5842C4.18393 20.6113 4.11477 20.6224 4.04606 20.6162C3.97735 20.6101 3.91124 20.587 3.85366 20.549C3.79608 20.511 3.74884 20.4593 3.71618 20.3985C3.68351 20.3377 3.66644 20.2698 3.6665 20.2008V8.33332L5.33317 7.61916ZM15.5357 11.8692L11.9998 15.4042L8.464 11.8692C7.76483 11.1699 7.28871 10.2789 7.09585 9.30906C6.90299 8.33918 7.00206 7.33389 7.38052 6.42031C7.75898 5.50673 8.39985 4.72589 9.22207 4.17652C10.0443 3.62715 11.011 3.33392 11.9998 3.33392C12.9887 3.33392 13.9554 3.62715 14.7776 4.17652C15.5998 4.72589 16.2407 5.50673 16.6192 6.42031C16.9976 7.33389 17.0967 8.33918 16.9038 9.30906C16.711 10.2789 16.2348 11.1699 15.5357 11.8692ZM11.9998 13.0475L14.3565 10.69C14.8228 10.2239 15.1403 9.62992 15.269 8.98328C15.3977 8.33665 15.3318 7.66638 15.0795 7.05723C14.8273 6.44809 14.4 5.92743 13.8518 5.56112C13.3037 5.1948 12.6592 4.99928 11.9998 4.99928C11.3405 4.99928 10.696 5.1948 10.1478 5.56112C9.59965 5.92743 9.17241 6.44809 8.92014 7.05723C8.66788 7.66638 8.60193 8.33665 8.73063 8.98328C8.85933 9.62992 9.1769 10.2239 9.64317 10.69L11.9998 13.0475Z" fill="#10BD99"/>
</svg>
