<svg width="24" height="25" viewBox="0 0 24 25" fill="none" xmlns="http://www.w3.org/2000/svg">
<path d="M4.49984 5H19.4998C19.7209 5 19.9328 5.0878 20.0891 5.24408C20.2454 5.40036 20.3332 5.61232 20.3332 5.83333V19.1667C20.3332 19.3877 20.2454 19.5996 20.0891 19.7559C19.9328 19.9122 19.7209 20 19.4998 20H4.49984C4.27882 20 4.06686 19.9122 3.91058 19.7559C3.7543 19.5996 3.6665 19.3877 3.6665 19.1667V5.83333C3.6665 5.61232 3.7543 5.40036 3.91058 5.24408C4.06686 5.0878 4.27882 5 4.49984 5ZM18.6665 8.53167L12.0598 14.4483L5.33317 8.51333V18.3333H18.6665V8.53167ZM5.759 6.66667L12.0507 12.2183L18.2515 6.66667H5.759Z" fill="#10BD99"/>
</svg>
