<svg width="816" height="548" viewBox="0 0 816 548" fill="none" xmlns="http://www.w3.org/2000/svg">
<g clip-path="url(#clip0_1_221)">
<rect width="816" height="548" fill="#F3F6FA"/>
<path d="M464.87 413.992L462.527 418.678V423.364L464.87 430.393V444.452L467.214 449.138L469.557 451.481L471.9 456.167L469.557 460.853L467.214 463.196L462.528 465.539H460.185L457.842 463.196H453.155L450.812 467.882L448.469 470.225V474.911L450.812 479.597L453.155 486.627L455.498 488.97H464.871L469.557 491.313V493.656L467.214 498.342L469.557 503.028L467.214 505.371L462.528 507.714H460.185V514.743L457.842 517.086H453.155V510.057L450.812 507.714L443.783 512.4L441.44 514.743V526.459H439.097L436.754 528.802L434.411 533.488V542.86L439.097 545.203L436.753 549.889V552.232L434.41 554.575L436.753 559.262L439.097 561.604V568.633L436.753 570.977H434.41V566.29L429.725 563.947L427.381 566.29V573.32H415.666L413.323 578.006L410.98 582.692V587.378L406.294 589.721H403.951L401.608 592.064V596.75L396.921 601.437L394.578 603.779L392.235 606.122L389.902 610.808V620.181L387.559 624.867L382.873 631.896H373.5L368.815 634.239L364.128 638.926H361.785L359.442 636.582V634.239H361.785H359.442H361.785V627.21H354.756V629.553L352.413 627.21H350.07V622.524H343.041V615.495H345.384V613.152H347.727V610.808H345.384L343.041 606.122V589.721H345.384V587.378H347.727V582.692V585.035H345.384V587.378V585.035H343.041V580.349H340.698V578.006H338.355V575.663H336.011V570.977H338.355L336.011 568.633H338.355H336.011V566.29H331.325L333.668 563.947L331.325 561.604H333.668V559.262H336.011V554.575H338.355V549.889H336.011L333.668 547.546H331.325V542.86H328.982V545.203H326.639L324.296 547.546H326.639H324.296L321.953 549.889H324.296V552.232L321.953 554.575V552.232H312.581V549.889H314.924L312.581 547.546L310.238 545.203V547.546L307.894 545.203H305.551H307.894V542.86H310.238V545.203V542.86L312.581 540.517V535.831H310.238L312.581 533.488V528.802L314.924 526.459V524.116L312.581 521.773H314.924H312.581V512.4H310.238V510.057L312.581 507.714V505.371H310.238H312.581V495.999L314.924 493.656L317.267 491.313V488.97H319.61L321.953 486.627V484.284H326.639V481.94L324.296 479.597H321.953H324.296V465.539H326.639V463.196H328.983L331.326 460.853H333.669L331.326 458.51H328.983L326.639 456.167H324.296V451.481H317.267L314.924 449.138H312.581L310.238 446.795H307.894V444.452H305.551H307.894L305.551 442.108H303.208L300.865 439.765V437.422H298.522V435.08L296.179 432.736V430.393L293.836 430.393V428.05H291.493V425.707H286.806L284.463 423.364H279.778L277.434 421.021H272.748L270.405 423.364V421.021H268.062V411.649H272.748V409.306H270.405V402.276L272.748 399.933H270.405V397.59H268.062L265.719 395.247H261.043L258.7 392.905V390.561H261.043V388.218H258.7H261.043V385.875L263.386 383.532H265.729V381.189H263.386H265.729L263.386 378.846L265.729 376.503V369.474L268.072 367.131V364.788H265.729V357.759L263.386 355.416H261.043V353.072H258.7V350.729H256.356V348.386H254.013V343.7H249.327V346.043H239.955V343.7L237.612 346.043V341.357H235.269V339.014H232.926V334.328H235.269V329.642H237.612L239.955 327.299L242.298 324.955V320.269H239.955V317.927L242.298 315.584V310.897H244.641H242.298H244.641V308.554L246.984 306.211V301.525H251.67V299.182L254.013 296.839H256.356L258.7 299.182H261.043V301.525V299.182H263.386V294.496H265.729V292.153L270.415 289.81H272.758L270.415 287.467L272.758 285.124V282.78L275.101 280.437L277.444 278.095V275.752H279.788L277.444 273.408H282.13V271.065H284.473V266.379H282.13L284.473 264.036H286.816V261.693H289.16V259.35H291.503V261.693H293.846L296.189 266.379V271.065L293.846 273.408L291.503 278.095L293.846 280.437H296.189V282.78L300.875 285.124L303.218 287.467H307.904L310.247 292.153V296.839H312.59L317.277 294.496H321.963L324.306 296.839L326.649 299.182L328.992 296.839H331.335V289.81H343.05V294.496L340.707 296.839V303.868L343.05 306.211H347.736L350.079 308.554V320.269L354.765 324.955V331.985L357.109 336.671L361.795 341.357L366.481 343.7H378.196L380.529 346.043L382.872 348.386L385.215 350.729L387.559 353.072V355.416L392.244 357.759H394.587L399.274 360.101L401.617 357.759L406.303 355.416H410.989V357.759L413.332 360.101L418.018 362.444L420.361 364.788L422.704 367.131H427.39L432.076 371.817L434.419 376.503L439.105 381.189H441.448V385.875L443.791 390.561L446.135 395.247L448.478 397.59H457.85L464.879 404.62V413.992H464.87Z" fill="#F3F6FA" stroke="#E7E9EC" stroke-width="2"/>
<path d="M551.565 -103.784L544.536 -85.0401L546.879 -82.6969L544.536 -78.0107L556.251 -68.6387L553.908 -61.6093V-56.9232L551.565 -54.5805V-47.5511L546.879 -42.865V-38.1786L549.222 -33.4924L542.193 -28.8068L537.507 -24.1204H532.821L530.478 -14.7486H528.134L525.791 -12.4053L521.106 -10.0622L523.449 -5.37602L521.106 -0.689636L523.449 1.65332L525.792 3.99652V11.0254L528.135 20.3979L530.478 25.0836L532.821 27.4268H535.164L530.478 32.1129V41.485L521.106 48.5143L518.762 53.2005L514.077 50.8573V60.2298L516.42 67.2587L514.077 71.9449H507.047L504.704 69.6019L502.361 64.9155L495.332 71.9449L490.646 64.9155H488.303L492.989 57.8867L485.96 60.2298L483.617 57.8867V53.2005L476.588 57.8867H474.245L471.902 53.2005L469.558 57.8867L467.215 62.573L464.872 67.2587H469.558V71.9449L467.215 76.6312L471.901 78.9742L469.558 81.3169H464.872L462.529 88.3463H457.843V83.6601H455.5L450.814 90.6895H446.127V100.062L439.098 95.3756L434.412 97.7188L432.069 93.0324L429.726 97.7188L427.383 95.3756L420.354 100.062L425.04 102.405L422.697 109.434H415.668L413.325 111.777H410.981L408.638 109.434L406.295 111.777H401.609L399.266 114.12L396.923 111.777V104.748L394.58 102.405H392.237L387.56 104.748V111.777H385.217L380.531 114.12H378.188L373.502 111.777V107.091L371.159 102.405L368.815 100.062L364.13 97.7188L357.1 95.3756L352.415 100.062H347.728V107.091L350.071 111.777H338.356V109.434H333.67V107.091H336.013L338.356 104.748H340.699H338.356V100.062H340.699V90.6895L343.043 88.3463V86.0031H340.699V83.6601H343.043L345.386 81.3169V78.9742H347.729V76.6312H352.415L354.758 74.2881L357.101 76.6312V74.2881L359.444 71.9449V67.2587L361.788 64.9155V62.573H359.444L361.788 60.2298V57.8867H364.131L361.788 55.5437H364.131V50.8573H366.474V48.5143L368.817 46.1712H366.474V41.485H364.131L366.474 39.1423L368.817 41.485V36.7991L371.16 34.4561H368.817V32.1129H366.474L364.131 29.7697H366.474V27.4268H361.788L359.444 25.0836L357.101 22.7409H354.758V20.3979H352.415V22.7409L350.072 20.3979V15.7115H357.101V13.3686H354.758V8.68221H352.415V11.0254H354.758H352.415V13.3686V3.99652H347.729V-3.03282L345.386 -7.71921V-10.0622H343.043V-7.71921H340.699V-10.0622H338.356V-12.4053H331.327H333.671V-14.7486H326.641L324.298 -17.091H319.612V-19.4342H317.269V-21.7774H319.612V-26.4636L317.269 -28.8068V-26.4636V-28.8068L314.926 -31.1497V-28.8068V-33.4924H310.239V-38.1786L312.583 -40.5218V-47.5511H310.239H312.583V-54.5805L310.239 -56.9232V-54.5805V-56.9232H307.896H310.239L307.896 -59.2661H310.239H307.896V-63.9525L305.553 -66.2955L303.21 -63.9525V-61.6093H300.867V-59.2661H303.21H298.524V-56.9232H293.838V-59.2661H291.495V-56.9232H289.152L286.809 -52.2373H284.466V-49.8943H282.123V-52.2373L279.779 -49.8943H275.094V-52.2373H270.407V-54.5805V-52.2373H268.064V-56.9232H261.045V-59.2661H258.702V-66.2955H256.359V-68.6387H254.016V-70.9814H258.702V-73.3244H261.045V-75.6675L258.702 -78.0107V-82.6969H256.359V-87.383H258.702V-89.7262H261.045V-92.0694H263.388V-96.7551L261.045 -99.0983V-101.441H263.388V-103.784H268.074V-106.128H270.417V-117.843H275.103L277.446 -120.186L282.132 -122.529H284.475V-124.872H282.132L284.475 -127.215L286.818 -129.558H291.505V-134.244H296.19L298.533 -136.587V-131.901H303.22V-134.244H300.877V-136.587L303.22 -138.93H300.877L303.22 -141.273V-143.617H305.563L307.906 -145.96V-148.303L310.249 -150.645V-152.988L312.592 -155.332V-152.988H314.935V-150.645H317.278V-152.988H321.965L324.308 -155.332V-157.675H326.651V-162.361L328.994 -164.704H331.337V-178.762L333.68 -181.105V-183.449L336.023 -185.792H338.366V-192.821L340.709 -195.164L338.366 -197.507V-199.85H340.709V-202.193V-199.85H343.053V-195.164H345.396V-197.507H352.425V-195.164H354.768L357.111 -197.507H354.768H357.111L354.768 -199.85H364.14V-202.193H366.483L371.169 -197.507V-192.821L373.512 -190.477H378.198V-185.792H380.532H378.189L380.532 -183.449V-176.419L378.189 -174.076L375.846 -171.733L373.503 -169.39V-164.704L375.846 -162.361V-160.018H373.503V-157.675L375.846 -155.332V-152.988H378.189V-148.303H380.532V-145.96H378.189H380.532V-143.617H382.875V-141.273H387.561V-138.93H389.904V-141.273L392.248 -138.93V-136.587H394.591V-134.244H399.276V-136.587H401.62L403.963 -134.244V-131.901H420.364V-136.587V-134.244H422.707V-129.558H429.736V-131.901L432.08 -129.558H429.736V-127.215H434.422V-122.529H436.765V-124.872H439.108V-127.215H443.795V-124.872H446.138V-127.215H443.795H446.138L453.167 -124.872V-117.843L460.196 -124.872H467.225L469.568 -129.558H476.597L481.284 -124.872H485.97L490.656 -127.215H497.685V-122.529L507.057 -127.215H509.39V-122.529H514.076L518.762 -131.901H525.792L532.821 -134.244L530.478 -124.872H535.164L537.507 -129.558L544.536 -124.872L551.565 -115.5V-103.784Z" fill="#F3F6FA" stroke="#E7E9EC" stroke-width="2"/>
<path d="M570.297 392.917L572.64 395.26L574.983 397.603H577.326V399.946L579.669 404.632L577.326 406.975L574.983 411.662V423.377L577.326 428.063H579.669L584.355 423.377H586.698L589.042 421.033H593.727L596.07 423.377V428.063H598.413L603.1 437.435L605.443 439.778V449.15L603.1 451.494L600.757 453.836L598.413 456.179V465.552L600.757 467.895V472.581L603.1 474.924L605.443 477.267L607.786 479.61V484.296L610.129 486.639L614.815 484.296H619.501V488.982L621.844 491.325L624.187 493.668L628.874 498.354L631.217 503.041L633.56 505.384L635.893 507.727L638.236 510.07L640.58 514.756L642.923 517.099V519.442L645.266 524.128L647.609 526.471V528.814L649.952 531.158V533.5L652.295 538.186H654.638V545.216L656.981 547.559L659.325 552.245L661.668 554.588V561.617L659.325 563.96H656.981L652.295 568.647L647.609 570.989L645.266 575.675L647.609 578.018V580.362L652.295 582.705L654.638 585.048L656.981 587.39H659.325V589.734L661.668 594.42H664.011L666.354 592.077H673.383V596.763L675.726 599.106V603.792L680.412 608.478H682.755L685.098 613.164V627.223L689.785 629.566H692.128V645.967L694.471 648.31L696.814 650.653V657.682L699.157 660.026H701.5V655.339H708.529L710.873 660.026L713.216 664.712H710.873L708.529 667.054L706.186 669.398V676.427H713.215L715.558 681.113V692.828L713.215 695.171L715.558 702.2L717.901 706.886L720.245 711.573V718.602L717.901 723.288V727.974L713.216 730.317L708.529 735.004L706.186 739.689L703.843 742.032L699.158 739.689L696.814 735.004L694.471 732.66H687.442L682.756 735.004H680.413L675.727 730.317L673.384 727.974V725.631L671.04 723.288L666.354 720.945L661.669 718.602L659.325 716.259L654.639 713.916V711.573L652.296 709.23L649.953 704.543L647.61 699.857L645.267 695.171V692.828L635.894 688.142L633.551 690.485H624.179L621.836 692.828L617.15 695.171L614.807 697.515H610.121L607.778 692.828H600.749L598.405 690.485V688.142H596.062L591.377 685.799L586.69 688.142L584.347 690.485H582.004L579.661 692.828V690.485L577.318 688.142H572.632L570.288 685.799H567.945V683.456H563.259V685.799L565.602 692.828V704.543L563.259 706.886L560.916 711.573V718.602L563.259 720.945V723.288L560.916 727.974L558.573 725.631H556.23L553.887 723.288L549.201 725.631V727.974H546.858L544.515 732.66V737.346L539.828 742.032L535.143 744.375L525.77 749.062L516.408 751.405H509.378L507.035 753.748L504.692 758.444L500.006 760.787H488.291L483.605 756.101H474.233L469.547 758.444H467.204L462.518 760.787L460.174 763.13H453.146L450.802 765.473L446.116 767.816L441.43 770.159H439.087L436.744 767.816L432.057 763.13H427.372L425.029 760.787L420.342 756.101H410.97L406.284 753.757L403.941 751.414V746.728L399.255 737.356L396.912 735.013L394.569 727.984H392.226L385.206 730.327V720.955H387.549V718.612H382.863V716.268H380.52V713.925L375.834 709.239H368.805L366.462 706.896V702.21H364.119L361.775 699.867H364.119V690.495H361.775V683.466L364.119 681.123H361.775L366.462 676.437V674.094L368.805 671.751H371.148L368.805 669.408V667.064H366.462H368.805V664.721H366.462V660.035L364.119 657.692H359.432V655.349H357.089V650.663L354.746 648.32V643.634H357.089V638.948L359.432 636.604L361.775 638.948H364.119L368.805 634.262L373.491 631.919H382.863L387.549 624.889L389.892 620.203V610.831L392.236 606.145L394.579 603.802L401.608 596.773V592.087L403.951 589.744H406.294L410.98 587.4V582.714L413.323 578.028L415.666 573.342H427.381V566.313L429.724 563.97L434.411 566.313V570.999H436.754L439.097 568.656V561.627L436.754 559.284L434.411 554.598L436.754 552.255V549.911L439.097 545.225L434.411 542.882V533.51L436.754 528.824L439.097 526.481H441.44V514.766L443.783 512.423L450.812 507.736L453.156 510.08V517.108H457.841L460.184 514.766V507.736H462.528L467.214 505.393L469.557 503.05L467.214 498.364L469.557 493.678V491.335L464.871 488.992H455.499L453.156 486.649L450.812 479.62L448.469 474.924V470.238L450.812 467.895L453.156 463.209H457.841L460.184 465.552H462.528L467.214 463.209L469.557 460.866L471.9 456.179L469.557 451.494L467.214 449.15L464.871 444.464V442.121L469.557 439.778H471.9L476.586 437.435V432.749L478.929 428.063L481.272 425.72L485.958 423.377L488.301 418.69L492.987 411.662L495.33 404.632V397.603L497.673 395.26L502.36 397.603L504.703 399.946L509.379 404.632L514.065 409.318V416.347L516.408 418.69H525.78V416.347L523.437 414.004V404.632L532.81 399.946V397.603L537.495 390.574V383.544L535.152 378.859V376.516H539.838L544.525 378.859H551.554L556.24 381.202V385.888L558.583 392.917H563.269L565.612 390.574L567.955 388.231H570.298L570.297 392.917Z" fill="#F3F6FA" stroke="#E7E9EC" stroke-width="2"/>
<path d="M607.776 -153.095H614.805V-148.409L619.491 -150.752L617.148 -146.066H621.834L626.52 -141.38L624.177 -136.694L626.52 -132.008V-129.664H631.206V-124.979H628.863V-117.949L633.549 -115.606L635.892 -113.263L638.235 -103.891H640.579L645.264 -106.234V-108.577L647.607 -110.92L652.294 -108.577L654.637 -110.92L656.98 -113.263V-120.293L659.323 -122.635H661.666V-115.606L664.009 -110.92V-106.234L668.695 -103.891H673.381L675.724 -99.205H682.754L687.439 -96.8618H689.783V-101.548L692.126 -106.234L696.812 -110.92L699.155 -108.577H701.498L706.184 -110.92V-108.577H715.556L720.242 -106.234L717.899 -101.548L720.242 -99.205L722.585 -101.548H727.272V-103.891H734.301L736.644 -101.548L738.987 -103.891H750.702L753.045 -108.577L757.731 -110.92V-108.577H755.388V-103.891H757.731V-101.548L760.075 -96.8618L764.751 -99.205V-94.5186L771.78 -96.8618V-92.1754H774.123V-89.8325H778.809V-87.4893H776.466V-75.7742H778.809L781.152 -73.431H778.809V-71.0879H781.152L778.809 -64.059L781.152 -61.716H783.495V-57.0296L781.152 -54.6867V-52.3435H785.838V-50.0003H788.182V-45.3146H785.838H788.182V-42.9714H790.525V-45.3146H797.553V-47.6573H799.897V-45.3146H802.24V-47.6573H809.269L806.926 -45.3146H809.269V-42.9714V-45.3146H811.612V-40.6285H818.641V-38.2853L813.955 -33.5991L811.612 -31.2564L816.298 -21.8839L813.955 -14.8545V-12.5116H823.327V-10.1684H825.67V-7.82521H823.327V-5.48271H820.984V1.54663H818.641V6.233H820.984V8.5755L818.641 6.233L816.298 8.5755V15.6051H813.955V17.948H811.612V15.6051H809.269V22.6344H806.925V24.9769H804.582V29.6633H802.239V34.3494H797.553V36.6926H795.21V39.0356H792.867V41.3788L788.181 46.0649L781.152 50.7508L776.466 53.0938L767.093 57.7802L755.378 60.1231L757.721 48.4076L750.692 43.722L746.006 50.7508L738.977 48.4076L734.291 55.437L736.634 62.4663L722.576 69.4952V74.1814L717.889 69.4952L715.546 64.8091L713.203 62.4663L708.517 57.7802V53.0938L701.488 50.7508L699.145 46.0649H689.773L687.43 41.3788H685.087V36.6926H673.372L671.029 29.6633L666.342 24.9769L668.685 36.6926H663.999L659.314 32.0062L661.657 39.0356L666.342 41.3788V46.0649H661.657V43.722H656.97L654.627 46.0649H652.284L645.265 53.0938V48.4076L642.922 46.0649L635.892 43.722L633.549 50.7508L626.52 46.0649L624.177 53.0938H617.148V69.4952H607.776L593.718 64.8091L586.688 67.152L582.002 60.1231L584.345 55.437H579.659L577.316 53.0938L565.601 55.437L563.258 57.7802L560.915 53.0938L570.287 50.7508L565.601 48.4076H558.571L549.199 53.0938V48.4076L542.17 46.0649L537.484 50.7508V46.0649L530.455 41.3788V32.0062L535.141 27.3201H532.798L530.454 24.9769L528.111 20.2912L525.768 10.9187V3.88982L523.425 1.54663L521.082 -0.796326L523.425 -5.48271L521.082 -10.1684L525.768 -12.5116L528.111 -14.8545H530.454L532.798 -24.2271H537.484L542.17 -28.9132L549.199 -33.5991L546.856 -38.2853V-42.9714L551.542 -47.6573V-54.6867L553.885 -57.0296V-61.716L556.228 -68.7454L544.513 -78.1172L546.856 -82.8036L544.513 -85.1465L551.542 -103.891V-115.606L544.513 -124.979L549.199 -134.351L551.542 -132.008L553.885 -129.664H556.228L558.571 -132.008L565.6 -134.351L570.286 -132.008L574.973 -136.694H586.688L589.031 -146.066L591.374 -148.409L598.403 -150.752V-155.438L607.775 -157.781L607.776 -153.095Z" fill="#F3F6FA" stroke="#E7E9EC" stroke-width="2"/>
<path d="M453.14 144.566V146.909L450.797 149.252L446.111 156.281L441.425 160.967V163.31L443.768 165.653L446.111 167.997L455.483 172.683L457.826 177.368L460.17 179.712L464.856 182.055H469.542L471.885 186.741V191.427H474.228L483.6 196.113L485.943 198.457V207.828L481.257 214.857L478.914 219.544V231.259L483.6 235.945L481.257 238.288H478.914V240.631L483.6 245.317V264.062L485.943 271.091L488.286 273.434L490.629 278.12L492.972 282.806L495.315 287.492H492.972V292.179L490.629 296.865V313.266L492.972 315.609L497.659 313.266H504.687L507.03 317.952L504.688 324.981V327.324L507.031 329.667L511.717 327.324H514.06L516.403 324.981L518.746 329.667V334.354L514.06 339.04L511.717 343.726V353.098L514.06 357.784L518.746 360.127L523.432 364.813H525.775V369.499L528.118 371.842L532.804 374.185L535.147 376.529V378.872L537.491 383.558V390.587L532.805 397.616V399.959L528.118 402.302L523.433 404.645V414.018L525.776 416.361V418.704H516.403L514.06 416.361V409.331L502.345 397.616L497.659 395.273L495.316 397.616V404.645L492.973 411.674L488.286 418.704L485.943 423.389L481.258 425.733L478.915 428.076L476.571 432.762V437.448L471.885 439.791H469.542L464.856 442.134V430.419L462.513 423.389V418.704L464.856 414.018V404.645L462.513 402.302L457.827 397.616H448.454L446.111 395.273L443.768 390.587L441.425 385.901V381.215H439.082L434.396 376.529L432.053 371.842L427.367 367.156H422.681L420.338 364.813L417.995 362.47L413.309 360.127L410.966 357.784V355.441H406.279L401.594 357.784L399.25 360.127L394.564 357.784H392.221L387.545 355.441V353.098L385.202 350.755L382.859 348.412L378.172 343.726H366.457L361.772 341.383L359.428 339.04L357.085 336.696L354.742 332.01V324.981L350.056 320.295V308.58L347.713 306.237H343.027L340.684 303.894V296.865L343.027 294.521V289.836H331.312V296.865H328.968L326.625 299.208L321.939 294.521H317.253L312.567 296.865H310.224V292.179L307.881 287.492H303.195L300.852 285.149L296.166 282.806V280.463H293.823L291.48 278.12L293.823 273.434L296.166 271.091V266.405L293.823 261.719H298.509V254.689H296.166V252.347H298.509V250.004H293.823V247.661H289.136V245.317V247.661V240.631H291.48V238.288L293.823 235.945V233.602H296.166V228.916H298.509V226.573H303.195V224.23L300.852 221.887V219.544H298.509V212.515H296.166L293.823 210.172H291.48L289.136 207.828H286.793V205.485V207.828H284.45V205.485H282.107V200.799H279.764V193.77H282.107V191.427H284.45V189.084L279.764 184.398V182.055L277.421 179.712V175.026L275.078 172.683V170.339H270.392L268.049 167.997V160.967H270.392L272.735 158.624L275.078 160.967V158.624H282.107V144.566H289.136V142.223H291.48V144.566V142.223H300.852V139.88L298.509 137.536H300.852V135.194L303.195 132.851V125.821L305.538 123.478V114.106H310.224V116.449H312.567V118.793H314.91V121.135H317.253V123.478H319.596L321.94 125.821L324.283 128.164V130.508H328.969L331.312 128.164V123.478H335.998L338.341 121.135V111.763H350.056L347.713 107.077V100.047H352.399L357.085 95.3618L364.114 97.7043L368.8 100.047L371.144 102.391L373.487 107.077V111.763L378.172 114.106H380.516L385.202 111.763H387.545V104.734L392.231 102.391H394.574L396.917 104.734V111.763L399.26 114.106L401.604 111.763H406.29L408.633 109.42L410.976 111.763H413.319L415.662 109.42H422.691L425.034 114.106L432.064 121.135H439.092L441.436 125.821L439.092 128.164L441.436 132.851L448.465 130.508L450.808 132.851V139.88L455.494 135.194L457.837 137.536V142.223L453.151 144.566H453.14Z" fill="#3ADBB9" stroke="#E7E9EC" stroke-width="2"/>
<path d="M776.47 315.566L774.127 320.252L778.813 322.595V331.968L774.127 334.31L771.784 338.996H769.441V346.026L767.098 348.369L771.784 350.711L769.441 353.055L771.784 355.398L769.441 360.084L771.784 362.427L769.441 367.113H767.098L764.754 369.456H762.411L760.068 371.799L757.725 374.142H753.039V376.485L748.353 381.172L746.01 383.514L741.324 388.201V390.543L738.981 392.887H736.638V395.23H734.294V402.259H727.265L724.922 399.916L722.579 402.259L720.236 406.945L717.893 409.288V411.631L715.55 416.317H710.864L708.521 413.974V411.631L706.177 409.288H701.492L699.149 411.631H696.805V416.317L692.119 421.003L689.776 425.69L687.433 428.033L685.09 432.719V451.463L687.433 456.149V458.492L689.776 460.835V463.178L687.433 465.521H682.747L680.404 467.864V472.551L682.747 477.237V479.58L687.433 484.266V510.05L685.09 514.736H678.061L675.718 512.392H671.032L668.689 514.736L666.345 517.078L664.002 519.421H661.659L659.316 521.765H654.63L652.287 524.108L647.601 526.451L645.267 524.108L642.924 519.421V517.078L640.581 514.736L638.238 510.05L635.895 507.706L631.209 503.02L628.866 498.334L624.18 493.648L621.837 491.305L619.494 488.962V484.276H614.807L610.121 486.619L607.778 484.276V479.589L605.435 477.247L600.749 472.561V467.874L598.406 465.531V456.159L600.749 453.816L603.092 451.473L605.435 449.13V439.758L603.092 437.415L600.749 432.729L598.406 428.042H596.063V423.356L593.72 421.013H589.034L586.69 423.356H584.347L579.662 428.042H577.318L574.975 423.356V411.641L577.318 406.955L579.662 404.612L577.318 399.926V397.583H574.975L570.289 392.897V388.21H567.946L565.603 390.553L563.26 392.897H558.574L556.231 385.867V381.182L551.545 378.838H544.515L539.83 376.495H535.143L532.8 374.152L528.115 371.809L525.771 369.466V364.78H523.428L518.752 360.094L514.066 357.751L511.723 353.065V343.692L514.066 339.006L516.409 336.663L518.752 334.32V329.634L521.095 324.948H525.781V322.605L528.124 317.919H530.467L535.153 320.262H537.496L539.84 322.605H542.183L544.526 320.262L549.212 322.605L551.555 327.291L556.241 329.634L558.584 324.948H563.27L565.613 322.605V315.576H567.957V313.232L565.613 308.547L567.957 303.86H572.642L574.985 301.517H572.642V296.831L570.299 294.488L572.642 289.802L577.329 292.145V287.459L579.672 285.116L577.329 282.773V278.087L574.985 273.401L577.329 271.058L582.015 275.744H584.358L589.044 271.058H600.759L603.102 266.372L605.445 261.685L607.788 259.342H614.817V249.97H619.503L621.846 247.627L626.532 245.284L628.876 249.97L633.562 245.284L638.238 249.97L635.895 254.656L640.581 256.999L642.924 264.029L647.61 266.372L649.953 268.715L640.581 282.773L647.61 285.116L649.953 282.773L652.296 287.459H656.983L661.668 282.773L664.011 285.116L659.326 292.145L661.669 296.831L666.355 292.145L668.698 294.488L671.041 292.145H675.727L678.07 289.802V278.087L682.756 282.773L687.442 273.401V271.058L689.785 261.685L694.471 264.029L699.157 271.058H703.843L708.529 275.744L715.558 264.029H717.902V256.999H722.587L729.617 261.685V266.372L734.303 264.029V268.715L738.989 271.058V275.744L734.303 280.43V287.459L729.617 289.802L727.274 299.174H734.303L738.989 303.86V310.89H743.675L746.018 313.232L748.361 317.919H750.704L760.076 310.89L776.468 315.576L776.47 315.566Z" fill="#F3F6FA" stroke="#E7E9EC" stroke-width="2"/>
<path d="M895.955 -206.983H893.612V-204.639H900.641V-202.296H902.984L905.327 -199.953H902.984V-197.61L905.327 -199.953L907.671 -197.61V-190.581L900.642 -183.552H905.327V-174.18L910.014 -167.151L912.357 -164.807V-162.464H910.014V-160.121H912.357V-162.464H921.729V-157.779L924.072 -155.435V-157.779V-155.435H931.101V-153.092H938.131V-150.749H940.474V-148.406L945.16 -143.72V-146.063H947.503V-143.72H952.189V-141.377H956.875V-139.034H961.561V-136.691H966.247L968.59 -139.034V-132.005H970.933V-124.976H973.276L970.933 -122.632V-120.289H973.276V-117.947H975.619V-115.603L982.648 -122.632L987.335 -124.976H992.021L994.364 -129.662H996.707V-136.691H999.05V-134.347V-136.691L1001.39 -134.347H1003.74L1006.08 -132.005V-129.662H1008.42V-127.318H1006.08L1008.42 -124.976V-120.289H1010.77V-122.632L1013.11 -120.289H1015.45L1017.79 -117.947V-113.26L1020.13 -115.603H1027.16V-113.26V-115.603L1029.5 -117.947V-115.603L1031.84 -117.947V-120.289H1038.87V-117.947L1041.22 -120.289V-117.947H1043.56V-115.603H1048.25V-110.917H1045.9V-101.545H1048.25H1045.9V-96.8584H1048.25V-89.8295H1045.9V-87.4866L1043.56 -85.1434L1041.22 -80.4572V-78.1145L1043.56 -73.4284H1045.9V-71.0852L1050.59 -66.399V-68.742V-57.027L1048.25 -52.3408L1043.56 -54.6838V-57.027L1041.22 -52.3408V-49.9976H1038.87V-47.6544H1034.19V-42.9683H1024.81V-38.2826H1022.47V-35.9394L1020.13 -33.5962V-31.2533H1022.47V-28.9101H1020.13V-26.5669H1017.79L1015.44 -24.2239V-21.8812H1017.79L1015.44 -19.538L1013.1 -21.8812V-19.538H1010.76V-17.1951H1008.41V-14.8519H1006.07V-12.5087H1001.38V-10.1657H999.04V-0.793182H1001.38H999.04L996.697 1.54955L994.354 3.89275V6.2357H992.011V8.57889H989.668V10.9221H987.325V13.265L984.982 15.6082H987.325V17.951H984.982V20.2939H982.638V22.6371H980.295L977.952 24.9803H980.295V27.3233H982.638V29.6664H984.982V41.3815H982.638V43.7247H984.982V46.0678H989.668V50.754L994.354 53.0972V55.4402V53.0972H992.011V57.7829L994.354 55.4402V57.7829H989.668V64.8122H987.325V69.4984H989.668V74.1843H992.011V76.5272H994.354V78.8704H999.04V81.2136H996.697V78.8704H994.353V81.2136H992.01V85.8997H989.667V88.243L992.01 90.5859V92.9291H994.353V97.6148H992.01V99.958H996.697L999.04 97.6148V99.958H1003.73V102.301H1006.07V104.644L1008.41 106.987L1010.76 104.644L1013.1 106.987V104.644H1015.44V106.987L1017.78 109.331H1015.44V111.673L1017.78 109.331V114.016H1020.13V116.359L1010.76 125.732V142.143H1008.41L1003.73 149.172H999.04V151.515H996.697L994.354 153.858H996.697V156.201L999.04 158.544V165.573H996.697L994.354 167.917V165.573H992.011L989.668 167.917H987.325V172.603H984.982V177.288H982.638V181.975L980.295 179.632V181.975H973.266V184.318H970.923V181.975H966.237L961.551 179.632H956.865V177.288L954.522 174.946V172.603L947.493 170.26V167.917H945.15V170.26H935.777V172.603H938.12V174.946H942.806V177.288H940.463V179.632H942.806H940.463V181.975H935.777V184.318H931.091L928.748 186.661V181.975V184.318L926.405 181.975V184.318L924.062 181.975V179.632H921.719V177.288H924.062V174.946H921.719V172.603V174.946H917.032V177.288H914.689V174.946L912.346 172.603H902.974L900.641 174.946H891.268V179.632V177.288H888.925V179.632H877.21V181.975H879.553V184.318H872.524V181.975L870.181 179.632H867.838V181.975H865.495L867.838 184.318H865.495L863.152 186.661H860.809V184.318H858.466V181.975H860.809V179.632H856.122V177.288H853.779V174.946H851.436V172.603L846.75 174.946V172.603H844.407H846.75H844.407L846.75 167.917H842.064V165.573L839.721 163.23V165.573H837.378V167.917V165.573L835.035 167.917H830.349V170.26H832.692V172.603H830.349L823.32 174.946V181.975L825.663 186.661L828.006 189.004L823.32 193.69L820.977 191.347L816.291 193.69V186.661L813.948 184.318L809.262 186.661L806.918 181.975L799.889 186.661V189.004H795.203L792.86 186.661V184.318H795.203V181.975H792.86V177.288H790.517V170.26L792.86 165.573H799.889V160.887H802.232V158.544L799.889 156.201H804.575V149.172H809.262V144.486L811.605 142.143L816.291 146.829L818.634 144.486V146.829L825.663 142.143V139.8H828.006V137.456L825.663 135.114H823.32V132.771H820.977V125.741H816.291V114.026H818.634V109.34H816.291V104.654H818.634V102.311H820.977V95.2819H823.32V92.9387H825.663V85.9093H823.32V83.5661H820.977V81.2232H818.634V78.8804H816.291L813.948 81.2232H811.605V83.5661L809.262 85.9093V83.5661L806.918 85.9093H802.232V83.5661H799.889L797.546 81.2232V76.5373H795.203V71.8511L799.889 67.1649V62.479L802.232 57.7929L799.889 55.4497V53.1068H797.546V48.4203L795.203 50.7635V48.4203H792.86L795.203 46.0774H792.86V43.7342H795.203H792.86V39.0485H795.203V36.7053H797.546V34.3621H802.232V29.676H804.575V24.9899H806.918V22.6471H809.261V15.6178H811.604V17.961H813.947V15.6178H816.29V8.58891L818.634 6.24571L820.977 8.58891V6.24571L823.32 8.58891L825.663 10.9316V8.58891V10.9316H828.006V8.58891H830.349V6.24571H832.692L835.035 3.90276V6.24571H839.722V8.58891H837.379H839.722V10.9316H842.065V8.58891V13.2746H839.722V15.6178V13.2746V15.6178H844.407V17.961H849.094V15.6178H851.437V13.2746V15.6178V10.9316V13.2746V10.9316H853.78H851.437H853.78V13.2746H856.123V10.9316H858.466L860.809 8.58891H863.152V10.9316V8.58891H867.838V6.24571H865.495H867.838H865.495V3.90276H867.838H865.495H867.838L865.495 -0.78363H867.838V-3.12682V-0.78363V-3.12682V-0.78363H870.181L870.182 -3.12682L870.181 -0.78363H874.867H872.524V8.58891H877.21H874.867H877.21V6.24571V8.58891V6.24571H879.554V8.58891H881.897V6.24571V8.58891H884.24V3.90276H886.583V1.55957H891.269V3.90276H893.612V6.24571H898.298V8.58891V6.24571V8.58891H910.013V6.24571H912.356V8.58891V6.24571H917.043H914.699H919.385V8.58891H917.042H919.385V10.9316H914.699H917.043V13.2746H919.386V10.9316H921.729H919.386H921.729V6.24571H919.386V3.90276V6.24571V1.55957V3.90276H921.729V1.55957H919.386V-0.78363H921.729L924.072 -3.12682H926.415V-5.46977H928.758H926.415H928.758V-19.528H931.101V-21.8712H928.758V-26.5573H926.415V-31.2432V-28.9005V-33.5862H928.758L931.101 -35.9294V-33.5862V-35.9294H928.758H931.101H926.415L924.072 -33.5862H919.386V-35.9294H917.043V-40.6155L919.386 -42.9587H924.072V-45.3019H921.729H924.072H921.729V-49.9881V-47.6449H919.386V-45.3019H917.043H919.386V-42.9587H914.699H917.043V-40.6155H914.699V-38.2726L912.356 -35.9294V-40.6155H910.013V-38.2726H907.67V-35.9294H910.013V-33.5862H905.327H907.67H902.984H905.327V-35.9294H900.641V-33.5862V-35.9294V-31.2432H902.984V-33.5862V-31.2432H905.327H900.642V-28.9005H898.299V-26.5573H895.955V-21.8712V-24.2144H893.612H895.955V-26.5573V-24.2144H893.612V-26.5573L891.269 -24.2144V-26.5573V-24.2144V-26.5573V-24.2144H893.612V-21.8712V-24.2144L895.955 -21.8712V-19.528H891.269L888.926 -21.8712H891.269H888.926V-24.2144L886.583 -21.8712V-24.2144H884.24V-26.5573H879.554V-28.9005H874.868V-31.2432H872.525V-33.5862V-31.2432H870.182V-28.9005H867.839V-26.5573H865.495V-24.2144H863.152V-21.8712H860.809V-19.528H858.466V-21.8712L856.123 -19.528V-14.8418V-17.185H853.78H856.123V-19.528H853.78V-17.185V-21.8712H856.123L853.78 -24.2144H851.437V-28.9005H853.78V-33.5862H856.123L851.437 -38.2726V-40.6155H846.751V-38.2726H842.065V-33.5862H839.722H842.065H839.722V-28.9005H837.379V-19.528H835.035V-12.4991H832.692V-10.1562H835.035L832.692 -7.81296H835.035H832.692V-10.1562H828.007V-12.4991V-10.1562H825.663H828.007H825.663V-7.81296V-10.1562H823.32V-12.4991H813.948V-14.8418L816.291 -21.8712L811.605 -31.2432L818.634 -38.2726V-40.6155H811.605V-45.3019H809.262V-42.9587V-45.3019H806.918L809.262 -47.6449H802.233V-45.3019H799.89V-47.6449H797.547V-45.3019H790.517V-42.9587H788.174V-45.3019H785.831H788.174V-49.9881H785.831V-52.3313H781.145V-54.6738L783.488 -57.0169V-61.7031H781.145L778.802 -64.0463L781.145 -71.0752H778.802V-73.4184H781.145L778.802 -75.7613H776.459V-87.4766H778.802V-89.8195H774.125V-92.1627H771.782V-96.8489L764.753 -94.5059V-99.1921L760.067 -96.8489L757.724 -101.535V-103.878H755.381V-108.565H757.724V-117.937H760.067V-122.623L762.41 -120.28V-122.623H767.096V-124.966H771.782V-127.308H774.125V-129.652H776.468V-131.995H781.155L783.498 -134.338H785.841L788.184 -136.681V-141.367H790.527L792.87 -139.024H795.213V-136.681H797.557V-139.024H799.9V-146.063H802.243V-148.406H804.586V-150.749H806.929V-155.435H809.272V-153.092H811.615V-155.435H813.958V-157.779H816.301V-160.121H813.958V-162.464H816.301V-164.807H818.645V-169.494H820.988V-174.18H823.331V-178.866H825.674V-185.895H839.732V-183.552H842.075V-185.895H844.418V-183.552H846.761L849.105 -185.895V-183.552V-185.895H851.448H849.105V-190.581H860.82V-192.924H863.163V-197.61H865.506V-195.268H867.849V-192.924H870.192L872.535 -190.581V-188.238H874.878L877.222 -190.581V-192.924H879.565V-195.268H881.908V-197.61H886.594V-199.953V-197.61H888.928V-199.953H891.271V-202.296L888.928 -199.953V-202.296H886.584V-206.983H893.613V-211.669H895.956L895.955 -206.983ZM919.387 -64.0554H917.044L914.7 -61.7122V-57.026H917.044V-59.3692V-57.026V-59.3692H919.387V-54.6828H921.73V-64.0554H919.387V-66.3986V-64.0554ZM881.897 -54.6828V-57.026H877.212V-54.6828H879.555V-57.026V-54.6828H881.898H879.555V-52.3399H881.898V-49.9967H884.241H881.898V-52.3399H879.555V-49.9967H881.898V-47.6535H879.555H881.898H879.555V-45.311H881.898V-47.6535V-45.311V-47.6535V-45.311V-47.6535V-45.311H884.241V-40.6246V-42.9678H886.584V-40.6246V-42.9678L888.927 -45.311H886.584V-42.9678V-45.311H881.898H884.241H881.898H884.241V-52.3399V-49.9967V-52.3399H881.898H884.241V-54.6828V-52.3399V-54.6828L881.898 -52.3399V-54.6828V-52.3399V-54.6828H884.241H881.898H884.241H881.897ZM835.037 -19.5361H832.694H835.037H832.694V-17.1929V-19.5361H835.037H832.694H835.037ZM900.642 -38.281H902.985H900.642ZM886.583 -24.2223V-26.5655V-24.2223ZM945.16 -26.5655H947.503H945.16ZM945.16 -24.2223V-26.5655V-24.2223ZM926.415 -3.13521H928.758H926.415H931.101H928.758V-5.47839H926.415V-3.13521ZM928.758 -5.47839H931.101H928.758Z" fill="#F3F6FA"/>
<path d="M835.037 -19.5361H832.694H835.037ZM835.037 -19.5361H832.694V-17.193V-19.5361H835.037ZM835.037 -19.5361H832.694H835.037ZM926.415 -3.1352H928.758H926.415ZM926.415 -3.1352H931.101H928.758V-5.47839H926.415V-3.1352V-3.1352ZM895.955 -206.983H893.612V-204.639H900.641V-202.296H902.984L905.327 -199.953H902.984V-197.61L905.327 -199.953L907.671 -197.61V-190.581L900.642 -183.552H905.327V-174.18L910.014 -167.151L912.357 -164.807V-162.464H910.014V-160.121H912.357V-162.464H921.729V-157.779L924.072 -155.435V-157.779V-155.435H931.101V-153.092H938.131V-150.749H940.474V-148.406L945.16 -143.72V-146.063H947.503V-143.72H952.189V-141.377H956.875V-139.034H961.561V-136.691H966.247L968.59 -139.034V-132.005H970.933V-124.976H973.276L970.933 -122.632V-120.289H973.276V-117.947H975.619V-115.603L982.648 -122.632L987.335 -124.976H992.021L994.364 -129.662H996.707V-136.691H999.05V-134.347V-136.691L1001.39 -134.347H1003.74L1006.08 -132.005V-129.662H1008.42V-127.318H1006.08L1008.42 -124.976V-120.289H1010.77V-122.632L1013.11 -120.289H1015.45L1017.79 -117.947V-113.26L1020.13 -115.603H1027.16V-113.26V-115.603L1029.5 -117.947V-115.603L1031.84 -117.947V-120.289H1038.87V-117.947L1041.22 -120.289V-117.947H1043.56V-115.603H1048.25V-110.917H1045.9V-101.545H1048.25H1045.9V-96.8584H1048.25V-89.8295H1045.9V-87.4866L1043.56 -85.1434L1041.22 -80.4572V-78.1145L1043.56 -73.4284H1045.9V-71.0852L1050.59 -66.399V-68.742V-57.027L1048.25 -52.3408L1043.56 -54.6838V-57.027L1041.22 -52.3408V-49.9976H1038.87V-47.6544H1034.19V-42.9683H1024.81V-38.2826H1022.47V-35.9394L1020.13 -33.5962V-31.2533H1022.47V-28.9101H1020.13V-26.5669H1017.79L1015.44 -24.2239V-21.8812H1017.79L1015.44 -19.538L1013.1 -21.8812V-19.538H1010.76V-17.195H1008.41V-14.8519H1006.07V-12.5087H1001.38V-10.1657H999.04V-0.793177H1001.38H999.04L996.697 1.54955L994.354 3.89274V6.2357H992.011V8.57889H989.668V10.9221H987.325V13.265L984.982 15.6082H987.325V17.951H984.982V20.2939H982.638V22.6371H980.295L977.952 24.9803H980.295V27.3233H982.638V29.6664H984.982V41.3815H982.638V43.7247H984.982V46.0678H989.668V50.754L994.354 53.0972V55.4401V53.0972H992.011V57.7829L994.354 55.4401V57.7829H989.668V64.8122H987.325V69.4984H989.668V74.1843H992.011V76.5272H994.354V78.8704H999.04V81.2136H996.697V78.8704H994.353V81.2136H992.01V85.8998H989.667V88.243L992.01 90.5859V92.9291H994.353V97.6148H992.01V99.958H996.697L999.04 97.6148V99.958H1003.73V102.301H1006.07V104.644L1008.41 106.987L1010.76 104.644L1013.1 106.987V104.644H1015.44V106.987L1017.78 109.331H1015.44V111.673L1017.78 109.331V114.016H1020.13V116.359L1010.76 125.732V142.143H1008.41L1003.73 149.172H999.04V151.515H996.697L994.354 153.858H996.697V156.201L999.04 158.545V165.573H996.697L994.354 167.917V165.573H992.011L989.668 167.917H987.325V172.603H984.982V177.288H982.638V181.975L980.295 179.632V181.975H973.266V184.318H970.923V181.975H966.237L961.551 179.632H956.865V177.288L954.522 174.946V172.603L947.493 170.26V167.917H945.15V170.26H935.777V172.603H938.12V174.946H942.806V177.288H940.463V179.632H942.806H940.463V181.975H935.777V184.318H931.091L928.748 186.661V181.975V184.318L926.405 181.975V184.318L924.062 181.975V179.632H921.719V177.288H924.062V174.946H921.719V172.603V174.946H917.032V177.288H914.689V174.946L912.346 172.603H902.974L900.641 174.946H891.268V179.632V177.288H888.925V179.632H877.21V181.975H879.553V184.318H872.524V181.975L870.181 179.632H867.838V181.975H865.495L867.838 184.318H865.495L863.152 186.661H860.809V184.318H858.466V181.975H860.809V179.632H856.122V177.288H853.779V174.946H851.436V172.603L846.75 174.946V172.603H844.407H846.75H844.407L846.75 167.917H842.064V165.573L839.721 163.23V165.573H837.378V167.917V165.573L835.035 167.917H830.349V170.26H832.692V172.603H830.349L823.32 174.946V181.975L825.663 186.661L828.006 189.004L823.32 193.69L820.977 191.347L816.291 193.69V186.661L813.948 184.318L809.262 186.661L806.918 181.975L799.889 186.661V189.004H795.203L792.86 186.661V184.318H795.203V181.975H792.86V177.288H790.517V170.26L792.86 165.573H799.889V160.887H802.232V158.545L799.889 156.201H804.575V149.172H809.262V144.486L811.605 142.143L816.291 146.829L818.634 144.486V146.829L825.663 142.143V139.8H828.006V137.456L825.663 135.114H823.32V132.771H820.977V125.741H816.291V114.026H818.634V109.34H816.291V104.654H818.634V102.311H820.977V95.2818H823.32V92.9387H825.663V85.9093H823.32V83.5661H820.977V81.2232H818.634V78.8804H816.291L813.948 81.2232H811.605V83.5661L809.262 85.9093V83.5661L806.918 85.9093H802.232V83.5661H799.889L797.546 81.2232V76.5373H795.203V71.8511L799.889 67.165V62.479L802.232 57.7929L799.889 55.4497V53.1067H797.546V48.4204L795.203 50.7635V48.4204H792.86L795.203 46.0774H792.86V43.7342H795.203H792.86V39.0485H795.203V36.7053H797.546V34.3621H802.232V29.676H804.575V24.9898H806.918V22.6471H809.261V15.6178H811.604V17.961H813.947V15.6178H816.29V8.58891L818.634 6.24572L820.977 8.58891V6.24572L823.32 8.58891L825.663 10.9316V8.58891V10.9316H828.006V8.58891H830.349V6.24572H832.692L835.035 3.90276V6.24572H839.722V8.58891H837.379H839.722V10.9316H842.065V8.58891V13.2746H839.722V15.6178V13.2746V15.6178H844.407V17.961H849.094V15.6178H851.437V13.2746V15.6178V10.9316V13.2746V10.9316H853.78H851.437H853.78V13.2746H856.123V10.9316H858.466L860.809 8.58891H863.152V10.9316V8.58891H867.838V6.24572H865.495H867.838H865.495V3.90276H867.838H865.495H867.838L865.495 -0.783623H867.838V-3.12681V-0.783623V-3.12681V-0.783623H870.181L870.182 -3.12681L870.181 -0.783623H874.867H872.524V8.58891H877.21H874.867H877.21V6.24572V8.58891V6.24572H879.554V8.58891H881.897V6.24572V8.58891H884.24V3.90276H886.583V1.55957H891.269V3.90276H893.612V6.24572H898.298V8.58891V6.24572V8.58891H910.013V6.24572H912.356V8.58891V6.24572H917.043H914.699H919.385V8.58891H917.042H919.385V10.9316H914.699H917.043V13.2746H919.386V10.9316H921.729H919.386H921.729V6.24572H919.386V3.90276V6.24572V1.55957V3.90276H921.729V1.55957H919.386V-0.783623H921.729L924.072 -3.12681H926.415V-5.46977H928.758H926.415H928.758V-19.528H931.101V-21.8712H928.758V-26.5573H926.415V-31.2432V-28.9005V-33.5862H928.758L931.101 -35.9294V-33.5862V-35.9294H928.758H931.101H926.415L924.072 -33.5862H919.386V-35.9294H917.043V-40.6155L919.386 -42.9587H924.072V-45.3019H921.729H924.072H921.729V-49.9881V-47.6449H919.386V-45.3019H917.043H919.386V-42.9587H914.699H917.043V-40.6155H914.699V-38.2726L912.356 -35.9294V-40.6155H910.013V-38.2726H907.67V-35.9294H910.013V-33.5862H905.327H907.67H902.984H905.327V-35.9294H900.641V-33.5862V-35.9294V-31.2432H902.984V-33.5862V-31.2432H905.327H900.642V-28.9005H898.299V-26.5573H895.955V-21.8712V-24.2144H893.612H895.955V-26.5573V-24.2144H893.612V-26.5573L891.269 -24.2144V-26.5573V-24.2144V-26.5573V-24.2144H893.612V-21.8712V-24.2144L895.955 -21.8712V-19.528H891.269L888.926 -21.8712H891.269H888.926V-24.2144L886.583 -21.8712V-24.2144H884.24V-26.5573H879.554V-28.9005H874.868V-31.2432H872.525V-33.5862V-31.2432H870.182V-28.9005H867.839V-26.5573H865.495V-24.2144H863.152V-21.8712H860.809V-19.528H858.466V-21.8712L856.123 -19.528V-14.8418V-17.185H853.78H856.123V-19.528H853.78V-17.185V-21.8712H856.123L853.78 -24.2144H851.437V-28.9005H853.78V-33.5862H856.123L851.437 -38.2726V-40.6155H846.751V-38.2726H842.065V-33.5862H839.722H842.065H839.722V-28.9005H837.379V-19.528H835.035V-12.4991H832.692V-10.1562H835.035L832.692 -7.81296H835.035H832.692V-10.1562H828.006V-12.4991V-10.1562H825.663H828.006H825.663V-7.81296V-10.1562H823.32V-12.4991H813.948V-14.8418L816.291 -21.8712L811.605 -31.2432L818.634 -38.2726V-40.6155H811.605V-45.3019H809.262V-42.9587V-45.3019H806.918L809.262 -47.6449H802.233V-45.3019H799.89V-47.6449H797.547V-45.3019H790.517V-42.9587H788.174V-45.3019H785.831H788.174V-49.9881H785.831V-52.3313H781.145V-54.6738L783.488 -57.0169V-61.7031H781.145L778.802 -64.0463L781.145 -71.0752H778.802V-73.4183H781.145L778.802 -75.7613H776.459V-87.4766H778.802V-89.8195H774.125V-92.1627H771.782V-96.8489L764.753 -94.5059V-99.1921L760.067 -96.8489L757.724 -101.535V-103.878H755.381V-108.565H757.724V-117.937H760.067V-122.623L762.41 -120.28V-122.623H767.096V-124.966H771.782V-127.308H774.125V-129.652H776.468V-131.995H781.155L783.498 -134.338H785.841L788.184 -136.681V-141.367H790.527L792.87 -139.024H795.213V-136.681H797.557V-139.024H799.9V-146.063H802.243V-148.406H804.586V-150.749H806.929V-155.435H809.272V-153.092H811.615V-155.435H813.958V-157.779H816.301V-160.121H813.958V-162.464H816.301V-164.807H818.645V-169.494H820.988V-174.18H823.331V-178.866H825.674V-185.895H839.732V-183.552H842.075V-185.895H844.418V-183.552H846.761L849.105 -185.895V-183.552V-185.895H851.448H849.105V-190.581H860.82V-192.924H863.163V-197.61H865.506V-195.268H867.849V-192.924H870.192L872.535 -190.581V-188.238H874.878L877.222 -190.581V-192.924H879.565V-195.268H881.908V-197.61H886.594V-199.953V-197.61H888.928V-199.953H891.271V-202.296L888.928 -199.953V-202.296H886.584V-206.983H893.613V-211.669H895.956L895.955 -206.983V-206.983ZM919.387 -64.0554H917.044L914.7 -61.7122V-57.026H917.044V-59.3692V-57.026V-59.3692H919.387V-54.6828H921.73V-64.0554H919.387V-66.3986V-64.0554V-64.0554ZM881.897 -54.6828V-57.026H877.212V-54.6828H879.555V-57.026V-54.6828H881.898H879.555V-52.3399H881.898V-49.9967H884.241H881.898V-52.3399H879.555V-49.9967H881.898V-47.6535H879.555H881.898H879.555V-45.311H881.898V-47.6535V-45.311V-47.6535V-45.311V-47.6535V-45.311H884.241V-40.6246V-42.9678H886.584V-40.6246V-42.9678L888.927 -45.311H886.584V-42.9678V-45.311H881.898H884.241H881.898H884.241V-52.3399V-49.9967V-52.3399H881.898H884.241V-54.6828V-52.3399V-54.6828L881.898 -52.3399V-54.6828V-52.3399V-54.6828H884.241H881.898H884.241H881.897V-54.6828ZM900.642 -38.281H902.985H900.642ZM886.583 -24.2223V-26.5655V-24.2223ZM945.16 -26.5655H947.503H945.16ZM945.16 -24.2223V-26.5655V-24.2223ZM928.758 -5.47839H931.101H928.758Z" stroke="#E7E9EC" stroke-width="2"/>
<path d="M607.777 69.6057L603.091 76.6345L605.434 78.9777V86.0071L607.777 97.7221V100.065L605.434 102.408L603.091 107.095V123.496L607.777 128.182L612.463 132.868L610.12 135.211L612.463 137.554L605.434 146.927L610.12 163.328H614.806L612.463 165.671L614.806 168.014L619.492 175.043V182.073L624.178 186.758L631.207 184.415L635.893 191.444L633.55 196.131L635.893 200.817L638.236 198.474L640.579 203.16L631.207 212.532L626.521 217.218V224.247L631.207 226.59V231.277L628.864 238.306L626.521 245.335L621.835 247.678L619.492 250.021H614.806V259.393H607.777L605.434 261.736L600.747 271.108H589.032L584.346 275.795H582.003L577.317 271.108L574.974 273.452L577.317 278.137V282.823L579.66 285.167L577.317 287.51V292.196L572.631 289.853L570.288 294.539L572.631 296.882V301.569H574.974L572.631 303.911H567.945L565.602 308.597L567.945 313.284V315.627H565.602V322.656L563.259 324.999H558.573L556.23 329.685L551.544 327.342L549.201 322.656L544.514 320.312L542.171 322.656H539.828L537.485 320.312H535.142L530.456 317.969H528.113L525.77 322.656V324.999H521.084L518.75 329.685L516.407 324.999L514.064 327.342H511.721L507.035 329.685L504.692 327.342V324.999L507.035 317.969L504.692 313.284H497.663L492.977 315.627L490.633 313.284V296.882L492.977 292.196V287.51H495.32L492.977 282.823L490.633 278.137L488.29 273.452L485.947 271.108L483.604 264.079V245.335L478.918 240.649V238.306H481.261L483.604 235.963L478.918 231.277V219.561L481.261 214.875L485.948 207.846V198.474L483.604 196.131L474.232 191.444H471.889V186.758L469.546 182.073H464.86L460.174 179.729L457.831 177.386L455.488 172.7L446.116 168.014L443.772 165.671L441.429 163.328V160.985L446.116 156.299L450.801 149.27L453.144 146.927V144.584L457.831 142.24V137.554L455.488 135.211L450.801 139.897V132.868L448.458 130.525L441.429 132.868L439.086 128.182L441.429 125.839L439.086 121.153H432.057L425.028 114.123L422.684 109.438L425.028 102.408L420.342 100.065L427.371 95.3791L429.714 97.7221L432.057 93.0359L434.4 97.7221L439.086 95.3791L446.116 100.065V90.6927H450.801L455.488 83.6639H457.831V88.3498H462.516L464.86 81.3209H469.546L471.889 78.9777L467.203 76.6345L469.546 71.9489V67.2625H464.86L467.203 62.5763L469.546 57.8902L471.889 53.2038L474.232 57.8902H476.576L483.604 53.2038V57.8902L485.948 60.2331L492.977 57.8902L488.291 64.9195H490.634L495.32 71.9489L502.349 64.9195L504.692 69.6057L507.035 71.9489H514.065L516.408 67.2625L514.065 60.2331V50.8608L518.751 53.2038L521.094 48.5181L530.466 41.4888L537.495 46.1749V50.8608L542.181 46.1749L549.21 48.5181V53.2038L558.583 48.5181H565.612L570.298 50.8608L560.926 53.2038L563.269 57.8902L565.612 55.5474L577.327 53.2043L579.67 55.547L584.357 55.5474L582.013 60.2331L586.699 67.2625L593.729 64.9195L607.787 69.6057H607.777Z" fill="#F3F6FA" stroke="#E7E9EC" stroke-width="2"/>
<path d="M792.878 184.333V186.676V179.647V181.99H795.221V184.333H792.878ZM982.645 189.019L980.302 193.705L984.989 198.392H994.36V200.735L987.332 205.421L984.989 214.793L992.017 224.165H996.704V228.851L999.047 231.194L1006.08 226.508L1010.76 233.537L1006.08 238.223V240.566L1003.73 245.252L1001.39 249.939L1003.73 252.282L1008.42 247.596H1015.45L1020.13 252.282V261.654L1017.79 266.34V273.369H1024.82V278.055L1029.51 280.398L1027.16 287.428H1031.85L1036.53 292.114L1031.85 294.457L1029.51 306.172L1041.22 308.515V313.201L1036.53 310.858V313.201L1029.51 315.545V317.887L1031.85 320.23V322.573L1038.88 334.288L1050.59 336.632V341.318H1055.28V348.347H1048.25L1045.91 353.033L1041.22 355.377L1038.88 357.719L1036.53 362.405L1034.19 357.719H1027.16V362.405L1024.82 367.092V378.807L1027.16 376.464L1024.82 381.15L1027.16 385.836H1029.51V388.179L1024.82 390.522L1022.48 395.209L1024.82 399.894V402.238L1020.13 399.894H1015.45L1013.1 404.58L1010.76 406.924L1008.42 399.894L1001.39 404.58V411.61L999.046 418.639H996.703L994.36 411.61H992.016L984.988 413.953H980.301L977.958 411.61H970.929L966.243 409.267L963.9 402.238L961.557 409.267L959.214 413.953V416.296L968.586 420.982L970.929 416.296H975.615L977.958 418.639L975.615 428.011H977.958L982.644 430.354L984.988 435.04L980.301 444.413H977.958L973.272 435.04L968.586 432.697L966.243 439.726H963.9L961.557 437.383L963.9 435.04V432.697L954.528 430.354V428.011L959.214 425.668V420.982L954.528 423.325H952.185V432.697L949.842 435.04L952.185 444.413L949.842 449.108H938.126L928.754 451.452L926.411 449.108H921.725L914.696 439.736L910.01 437.393L905.324 428.021L895.961 423.335L898.304 420.992L893.618 416.306L891.275 418.649L886.589 413.963L888.932 409.276L881.903 411.619L879.56 409.276L874.874 402.248L849.101 420.992L846.758 418.649L842.071 423.335L839.728 420.992H837.385V416.306L832.699 420.992L830.356 418.649L828.013 423.335L825.67 418.649L830.356 409.276L825.67 397.561H818.641V395.218L820.984 390.532V385.846L823.327 383.502L820.984 381.16L818.641 378.817L816.298 381.16H811.611L806.925 378.817L802.239 383.502V378.817L804.582 374.13L799.896 371.787L797.553 376.474L792.867 381.16L781.152 376.474L783.495 369.444L774.132 374.13L771.789 369.444L769.446 367.101L771.789 362.415L769.446 360.072L771.789 355.386L769.446 353.043L771.789 350.7L767.104 348.357L769.447 346.014V338.985H771.79L774.133 334.299L778.819 331.955V322.583L774.133 320.24L776.476 315.554L760.074 310.868L750.702 317.897H748.359L746.016 313.211L743.673 310.868H738.987V303.839L734.301 299.153H727.271L729.615 289.78L734.301 287.437V280.408L738.987 275.722V271.036L734.301 268.693V264.007L741.33 256.978L750.702 252.291H757.731L753.045 245.262L755.388 240.576H757.732L760.075 238.233L755.388 233.547H760.075L764.76 228.861H774.133L767.104 224.175L769.447 221.832L774.133 217.145L771.79 212.459H776.476L774.133 210.116V205.43L781.162 200.744L783.505 205.43L790.534 203.087L788.191 198.401V193.715L795.22 189.029L792.877 186.686L795.22 189.029H799.906V186.686L806.936 182L809.279 186.686L813.964 184.343L816.308 186.686V193.715L820.994 191.372L823.337 193.715L828.023 189.029L825.68 186.686L823.336 182V174.971L830.366 172.628H832.709V170.285H830.366V167.942H835.051L837.395 165.598V167.942V165.598H839.738V163.255L842.081 165.598V167.942H846.767L844.424 172.628H846.767H844.424H846.767V174.971L851.453 172.628V174.971H853.796V177.314H856.14V179.657H860.825V182H858.482V184.343H860.825V186.686H863.169L865.512 184.343H867.855L865.512 182H867.855V179.657H870.198L872.541 182V184.343H879.57V182H877.227V179.657H888.942V177.314H891.276V179.657V174.971H900.648L902.991 172.628H912.363L914.706 174.971V177.314H917.05V174.971H921.735V172.628V174.971H924.079V177.314H921.735V179.657H924.079V182L926.422 184.343V182L928.765 184.343V182V186.686L931.108 184.343H935.794V182H940.48V179.657H942.823H940.48V177.314H942.823V174.971H938.137V172.628H935.794V170.285H945.167V167.942H947.51V170.285L954.538 172.628V174.971L956.882 177.314V179.657H961.568L966.254 182H970.94V184.343H973.283V182H980.312V179.657L989.684 189.029L987.341 191.372L982.655 189.029L982.645 189.019Z" fill="#F3F6FA" stroke="#E7E9EC" stroke-width="2"/>
<path d="M886.588 413.992L891.265 418.678L893.608 416.335L898.293 421.021L895.95 423.364L905.323 428.05L910.009 437.422L914.695 439.765V444.452L910.009 446.795H907.666L902.98 451.481V453.824L898.293 456.167L895.95 458.51L893.607 460.853L886.578 467.882L884.235 470.225V472.568L886.578 477.254V479.597L888.921 481.94V486.627L884.235 491.313H881.892L879.549 493.656H877.206V498.342L879.549 500.685L881.892 503.028V512.4L879.549 517.086V521.773L877.206 526.459V528.802L874.863 531.145L872.52 533.488L870.176 535.831V542.86L872.52 545.203L870.176 549.889V554.575L867.833 559.262L870.176 563.947V580.349L867.833 587.378V601.437L865.49 606.122V613.152L863.147 620.181L860.804 622.524V624.867L856.118 627.21H837.373V629.553L835.03 631.896H832.687L830.344 634.239L828.001 636.582H825.658V638.926H820.972L818.629 636.582H816.286L813.943 638.926L809.256 641.269L804.57 643.611H802.227L797.541 645.955H792.855L788.169 648.297H785.826L776.454 657.67H771.778L767.091 660.013L757.719 662.356L750.69 669.385L743.661 671.728H734.289L727.259 674.071L720.23 678.758L715.544 685.786V681.101L713.201 676.414H706.172V669.385L708.515 667.042L710.858 664.699H713.202L710.858 660.013L708.515 655.327H701.486V660.013H699.143L696.8 657.67V650.641L694.457 648.297L692.114 645.955V629.553H689.77L685.084 627.21V613.152L682.741 608.466H680.398L675.712 603.779V599.093L673.369 596.75V592.064H666.34L663.997 594.407H661.653L659.31 589.721V587.378H656.967L654.624 585.035L652.281 582.692L647.595 580.349V578.006L645.262 575.663L647.605 570.977L652.291 568.633L656.977 563.947H659.32L661.663 561.605V554.575L659.32 552.232L656.977 547.546L654.634 545.203V538.174H652.291L649.947 533.488V531.145L647.604 528.802V526.459L652.29 524.116L654.633 521.773H659.319L661.663 519.429H664.006L666.349 517.086L668.692 514.743L671.035 512.4H675.721L678.064 514.743H685.093L687.436 510.057V484.294L682.751 479.608V477.264L680.407 472.578V467.892L682.751 465.549H687.436L689.779 463.206V460.863L687.436 458.52V456.177L685.093 451.491V432.746L687.436 428.06L689.779 425.717L692.123 421.031L696.809 416.345V411.659H699.152L701.495 409.316H706.181L708.524 411.659V414.002L710.867 416.345H715.553L717.896 411.659V409.316L720.24 406.973L722.583 402.286L724.926 399.943L727.269 402.286H734.298V395.257H736.641V392.914H738.984L741.327 390.571V388.228L746.013 383.542L748.356 381.199L753.043 376.513V374.17H757.729L760.072 371.827L762.405 369.484H764.748L767.091 367.141H769.434L771.778 369.484L774.121 374.17L783.493 369.484L781.15 376.513L792.865 381.199L797.551 376.513L799.894 371.827L804.58 374.17L802.237 378.856V383.542L806.923 378.856L811.61 381.199H816.295L818.638 378.856L820.982 381.199L823.325 383.542L820.982 385.885V390.571L818.638 395.257V397.6H825.668L830.354 409.316L825.668 418.688L828.011 423.374L830.354 418.688L832.697 421.031L837.383 416.345V421.031H839.726L842.069 423.374L846.755 418.688L849.098 421.031L874.872 402.286L879.558 409.316L881.901 411.659L888.93 409.316L886.587 414.002L886.588 413.992Z" fill="#F3F6FA" stroke="#E7E9EC" stroke-width="2"/>
<path d="M818.647 104.8H816.304V109.487H818.647V114.172H816.304V125.888H820.989V132.917H823.332V135.26H825.676L828.019 137.603V139.946H825.676V142.289L818.647 146.975V144.632L816.304 146.975L811.617 142.289L809.274 144.632V149.319H804.588V156.347H799.902L802.245 158.691V161.034H799.902V165.72H792.873L790.53 170.406V177.435H792.873V186.808L795.216 189.15L788.187 193.836V198.523L790.53 203.209L783.501 205.552L781.158 200.866L774.128 205.552V210.238L776.472 212.581H771.786L774.129 217.267L769.443 221.953L767.1 224.296L774.129 228.982H764.756L760.07 233.668H755.384L760.07 238.355L757.727 240.698H755.384L753.041 245.384L757.727 252.413H750.698L741.326 257.099L734.296 264.128L729.611 266.471V261.785L722.581 257.099H717.895V264.128H715.552L708.523 275.843L703.837 271.157H699.151L694.465 264.128L689.779 261.785L687.436 271.157V273.5L682.75 282.873L678.063 278.187V289.902L675.72 292.245H671.034L668.691 294.588L666.348 292.245L661.662 296.931L659.319 292.245L664.005 285.216L661.662 282.873L656.976 287.559H652.29L649.947 282.873L647.604 285.216L640.584 282.873L649.957 268.814L647.614 266.471L642.927 264.128L640.584 257.099L635.898 254.756L638.241 250.07L633.555 245.384L628.869 250.07L626.526 245.384L628.869 238.355L631.212 231.325V226.639L626.526 224.296V217.267L640.584 203.209L638.241 198.523L635.898 200.866L633.555 196.179L635.898 191.493L631.212 184.464L624.183 186.808L619.497 182.121V175.092L614.811 168.062L612.468 165.72L614.811 163.377H610.125L605.439 146.975L612.468 137.603L610.125 135.26L612.468 132.917L603.096 123.545V107.143L605.439 102.457L607.782 100.114V97.7709L605.439 86.0559V79.0266L603.096 76.6834L607.782 69.6545H617.154V53.2531H624.183L626.526 46.2238L633.555 50.9102L635.898 43.8808L642.928 46.2238L645.271 48.567V53.2531L652.3 46.2238H654.643L656.986 43.8808H661.672V46.2238H666.358V41.5376L661.672 39.1944L659.329 32.1656L664.015 36.8515H668.701L666.358 25.1362L671.044 29.8226L673.387 36.8515H685.102V41.5376H687.446L689.789 46.2238H699.161L701.504 50.9102L708.533 53.2531V57.939L713.219 62.6252L715.562 64.9684L717.906 69.6545L722.591 74.3402V69.6545L736.65 62.6252L734.306 55.5963L738.993 48.567L746.022 50.9102L750.708 43.8808L757.737 48.567L755.394 60.282L767.1 57.939L781.158 50.9102L788.187 46.2238L792.873 41.5376V43.8808H795.216H792.873V46.2238H795.216L792.873 48.567H795.216V50.9102L797.559 48.567V53.2531H799.902V55.5963L802.245 57.939L799.902 62.6252V67.3113L795.216 71.9977V76.6834H797.56V81.3695L799.903 83.7127H802.246V86.0559H806.932L809.275 83.7127V86.0559L811.618 83.7127V81.3695H813.961L816.304 79.0266H818.647V81.3695H820.99V83.7127H823.333V86.0559H825.676V93.0853H823.333V95.4282H820.99V102.457H818.647L818.647 104.8Z" fill="#F3F6FA" stroke="#E7E9EC" stroke-width="2"/>
<circle cx="408" cy="234" r="36" fill="white" fill-opacity="0.18"/>
<circle cx="408" cy="234" r="15.4286" fill="#0066CC"/>
</g>
<defs>
<clipPath id="clip0_1_221">
<rect width="816" height="548" fill="white"/>
</clipPath>
</defs>
</svg>
