<svg width="38" height="38" viewBox="0 0 38 38" fill="none" xmlns="http://www.w3.org/2000/svg">
<g clip-path="url(#clip0_402_1119)">
<path d="M28.5 0H9.5C4.25329 0 0 4.25329 0 9.5V28.5C0 33.7467 4.25329 38 9.5 38H28.5C33.7467 38 38 33.7467 38 28.5V9.5C38 4.25329 33.7467 0 28.5 0Z" fill="#4680C2"/>
<mask id="mask0_402_1119" style="mask-type:luminance" maskUnits="userSpaceOnUse" x="7" y="11" width="23" height="16">
<path d="M30 11H7V26.9375H30V11Z" fill="white"/>
</mask>
<g mask="url(#mask0_402_1119)">
<path d="M19.5063 26.9375C11.6719 26.9375 7.21563 20.9609 7 11H10.9531C11.0969 18.3312 13.9719 21.3594 16.2719 21.9969V11H20.0094V17.2953C22.2375 17.0562 24.6094 14.1875 25.4719 11H29.2094C28.5625 14.9047 25.975 17.7734 24.1781 18.9688C26.0469 19.925 28.9937 22.3953 30.0719 26.9375H25.975C25.1125 23.9094 22.8844 21.5984 20.0094 21.2797V26.9375H19.5063Z" fill="#EBEFF1"/>
</g>
</g>
<defs>
<clipPath id="clip0_402_1119">
<rect width="38" height="38" fill="white"/>
</clipPath>
</defs>
</svg>
