<svg id="Слой_1" data-name="Слой 1" xmlns="http://www.w3.org/2000/svg" width="13.41mm" height="13.41mm" viewBox="0 0 38 38">
  <path d="M24.83,0H13.17C2.52,0,0,2.52,0,13.16V24.83C0,35.48,2.52,38,13.17,38H24.83C35.48,38,38,35.48,38,24.83V13.16C38,2.52,35.48,0,24.83,0ZM29,12.15l-3,14.23c-.21,1-.82,1.25-1.67.78l-4.6-3.39-2.21,2.15,0,0a1.17,1.17,0,0,1-.9.44l.31-4.7h0L25.38,14c.37-.33-.09-.49-.58-.19L14.27,20.44,9.71,19c-1-.3-1-1,.22-1.47l17.73-6.83C28.47,10.35,29.26,10.91,29,12.15Z" fill="#717a8d"/>
</svg>
