<svg width="32" height="32" viewBox="0 0 32 32" fill="none" xmlns="http://www.w3.org/2000/svg">
<g clip-path="url(#clip0_1_49)">
<path d="M20.9092 0C29.8776 0 32 2.12209 32 11.082V20.9092C32 29.8776 29.8776 32 20.9092 32H11.0908C2.1224 32 0 29.8776 0 20.9092V11.082C1.1746e-05 2.12209 2.12242 0 11.0908 0H20.9092ZM20.2148 9.02734C18.6804 8.0722 16.9999 7.72969 15.21 7.92773C13.3377 8.13496 11.7072 8.8834 10.3613 10.208C8.76033 11.7837 7.99443 13.7191 8 16.0869C8.01259 16.34 8.02248 16.7122 8.05176 17.083C8.13466 18.1524 8.37287 19.1929 8.65234 20.2246C8.91103 21.1807 9.14766 22.1398 9.15527 23.1406C9.15768 23.4758 9.35355 23.7161 9.6748 23.8076C9.81835 23.8485 9.97432 23.8824 10.1211 23.8721C11.0203 23.8087 11.7978 23.4551 12.4521 22.835C12.6209 22.6751 12.5795 22.6545 12.791 22.8057C13.4458 23.2743 14.1442 23.6461 14.9551 23.7529C15.556 23.8321 16.1592 23.8527 16.7637 23.7988C19.0722 23.5937 20.9516 22.5692 22.3555 20.7295C23.9066 18.6967 24.3361 16.3925 23.7461 13.917C23.244 11.8109 22.0511 10.17 20.2148 9.02734ZM12.5605 13.9053C13.8446 11.4651 16.7729 11.2258 18.5605 12.6973C19.6145 13.565 20.1563 14.6906 20.0898 16.0664C20.0274 17.3554 19.4257 18.3722 18.3994 19.1328C17.7215 19.6356 16.9492 19.8885 16.1084 19.9141C15.3705 19.9364 14.6969 19.711 14.0674 19.3369C13.8477 19.2061 13.9029 19.2013 13.6982 19.3711C13.5144 19.5235 13.3321 19.6805 13.1348 19.8135C12.7879 20.0473 12.6332 20.0007 12.4502 19.6191C12.2278 19.1552 12.1174 18.6564 12.0518 18.1504C11.9923 17.6904 11.9637 17.226 11.9209 16.7637C11.9394 15.7632 12.0901 14.8001 12.5605 13.9053Z" fill="#717A8D"/>
</g>
<defs>
<clipPath id="clip0_1_49">
<rect width="32" height="32" fill="white"/>
</clipPath>
</defs>
</svg>
